<?xml version="1.0" encoding="UTF-8"?><svg id="Layer_1" xmlns="http://www.w3.org/2000/svg" xmlns:xlink="http://www.w3.org/1999/xlink" viewBox="0 0 1365 529"><defs><style>.cls-1{clip-path:url(#clippath);}.cls-2{fill:none;}.cls-3{fill:url(#SassyCatBG);}</style><clipPath id="clippath"><rect class="cls-2" x="-.5" y="3.5" width="1365" height="525"/></clipPath><pattern id="SassyCatBG" x="0" y="0" width="246" height="252.25" patternTransform="translate(-4226.61 -3204.28) scale(.69)" patternUnits="userSpaceOnUse" viewBox="0 0 246 252.25"><rect class="cls-2" y="0" width="246" height="252.25"/><path d="m276.96,252.93c-8.15-7.78-18.9-11.67-32.24-11.67-.04,0-.08,0-.12,0-.04,0-.08,0-.12,0-13.34,0-24.08,3.89-32.24,11.67-8.16,7.78-12.27,17.85-12.36,30.21,0,14.86,6.07,25.85,18.23,32.97l19.21,1.41v-.94c-12.15-1.33-20.92-5.16-26.3-11.5-4.98-5.87-7.46-13.18-7.46-21.94.24-9.93,4.1-17.93,11.56-24,7.45-6.05,17.28-9.08,29.48-9.09,12.2.01,22.03,3.04,29.48,9.09,7.46,6.06,11.32,14.06,11.56,24,0,8.76-2.49,16.07-7.46,21.94-5.38,6.34-14.15,10.17-26.3,11.5v.94l19.21-1.41c12.15-7.12,18.23-18.11,18.23-32.97-.08-12.36-4.2-22.43-12.36-30.21Z"/><path d="m153.96,252.93c-8.15-7.78-18.9-11.67-32.24-11.67-.04,0-.08,0-.12,0-.04,0-.08,0-.12,0-13.34,0-24.08,3.89-32.24,11.67-8.16,7.78-12.27,17.85-12.36,30.21,0,14.86,6.07,25.85,18.23,32.97l19.21,1.41v-.94c-12.15-1.33-20.92-5.16-26.3-11.5-4.98-5.87-7.46-13.18-7.46-21.94.24-9.93,4.1-17.93,11.56-24,7.45-6.05,17.28-9.08,29.48-9.09,12.2.01,22.03,3.04,29.48,9.09,7.46,6.06,11.32,14.06,11.56,24,0,8.76-2.49,16.07-7.46,21.94-5.38,6.34-14.15,10.17-26.3,11.5v.94l19.21-1.41c12.15-7.12,18.23-18.11,18.23-32.97-.08-12.36-4.2-22.43-12.36-30.21Z"/><path d="m30.96,252.93c-8.15-7.78-18.9-11.67-32.24-11.67-.04,0-.08,0-.12,0-.04,0-.08,0-.12,0-13.34,0-24.08,3.89-32.24,11.67-8.16,7.78-12.27,17.85-12.36,30.21,0,14.86,6.07,25.85,18.23,32.97l19.21,1.41v-.94c-12.15-1.33-20.92-5.16-26.3-11.5-4.98-5.87-7.46-13.18-7.46-21.94.24-9.93,4.1-17.93,11.56-24,7.45-6.05,17.28-9.08,29.48-9.09,12.2.01,22.03,3.04,29.48,9.09,7.46,6.06,11.32,14.06,11.56,24,0,8.76-2.49,16.07-7.46,21.94-5.38,6.34-14.15,10.17-26.3,11.5v.94l19.21-1.41c12.15-7.12,18.23-18.11,18.23-32.97-.08-12.36-4.2-22.43-12.36-30.21Z"/><path d="m225.29,136.53c2.82-2.91,4.72-5.8,5.71-8.67.99-2.87,1.48-5.14,1.48-6.79s-.11-3.03-.32-4.11c-1.34-7.17-5.32-12.23-11.94-15.21-3.52-1.62-7.54-2.43-12.05-2.43-7.4,0-13.32,1.93-17.76,5.78-5.14,4.46-7.72,9.8-7.72,16.02,0,8.31,3.88,15.41,11.63,21.29l19.56,14.8c3.1,2.36,4.65,5.32,4.65,8.87s-1.2,6.45-3.59,8.72c-2.39,2.26-5.37,3.4-8.93,3.4s-6.52-.93-8.88-2.79c-2.36-1.86-3.58-4.41-3.65-7.65h-1.06l.21,12.47h4.23c3.31.68,6.38,1.01,9.2,1.01,5.64,0,10.11-1.71,13.42-5.12,3.31-3.41,4.97-7.59,4.97-12.52s-2.08-8.96-6.24-12.06l-19.03-14.4c-3.24-2.43-5.58-5.1-7.03-8.01-1.44-2.91-2.17-5.61-2.17-8.11,0-.47.04-.95.11-1.42.71-6.69,3.91-11.46,9.62-14.3,3.03-1.55,6.61-2.33,10.73-2.33s7.81,1.05,11.05,3.14c5.57,3.51,8.35,8.45,8.35,14.8,0,5.34-1.83,10.31-5.5,14.9l.95.71Z"/><path d="m146.83,135.82c-3.66-4.6-5.5-9.56-5.5-14.9,0-6.35,2.78-11.29,8.35-14.8,3.24-2.09,6.92-3.14,11.05-3.14s7.7.78,10.73,2.33c5.71,2.84,8.91,7.6,9.62,14.3.07.47.1.95.1,1.42,0,2.5-.72,5.2-2.17,8.11-1.45,2.91-3.79,5.58-7.03,8.01l-19.03,14.4c-4.16,3.11-6.24,7.13-6.24,12.06s1.66,9.11,4.97,12.52c3.31,3.41,7.79,5.12,13.43,5.12,2.82,0,5.88-.34,9.2-1.01h4.23l.21-12.47h-1.06c-.07,3.24-1.29,5.8-3.65,7.65-2.36,1.86-5.32,2.79-8.88,2.79s-6.54-1.13-8.93-3.4c-2.39-2.27-3.59-5.17-3.59-8.72s1.55-6.51,4.65-8.87l19.55-14.8c7.75-5.88,11.63-12.98,11.63-21.29,0-6.22-2.57-11.56-7.72-16.02-4.44-3.85-10.36-5.78-17.76-5.78-4.51,0-8.53.81-12.05,2.43-6.62,2.98-10.61,8.04-11.94,15.21-.21,1.08-.32,2.45-.32,4.11s.49,3.92,1.48,6.79c.99,2.87,2.89,5.76,5.71,8.67l.95-.71Z"/><path d="m217.94,243.4c-8.15,7.78-18.9,11.67-32.24,11.67-.04,0-.08,0-.12,0-.04,0-.08,0-.12,0-13.34,0-24.08-3.89-32.24-11.67-8.16-7.78-12.27-17.85-12.36-30.21,0-14.86,6.07-25.85,18.23-32.97l19.21-1.41v.94c-12.15,1.33-20.92,5.16-26.3,11.5-4.98,5.87-7.46,13.18-7.46,21.94.24,9.93,4.1,17.93,11.56,24,7.45,6.05,17.28,9.08,29.48,9.09,12.2-.01,22.03-3.04,29.48-9.09,7.46-6.06,11.32-14.06,11.56-24,0-8.76-2.49-16.07-7.46-21.94-5.38-6.34-14.15-10.17-26.3-11.5v-.94l19.21,1.41c12.15,7.12,18.23,18.11,18.23,32.97-.08,12.36-4.2,22.43-12.36,30.21Z"/><path d="m184.36,27.16c1.34,12.85-5.08,29.82-18.25,34.87-1.96.64-4.04.94-6.04.72,15.39-2.23,22.82-22.43,24.29-35.59h0Z"/><path d="m185.99,27.16c1.47,13.14,8.9,33.36,24.29,35.59-2,.22-4.08-.08-6.04-.72-13.18-5.04-19.59-22.01-18.25-34.87h0Z"/><path d="m185.99,99.6c-1.34-12.85,5.08-29.82,18.25-34.87,1.96-.64,4.04-.94,6.04-.72-15.39,2.23-22.82,22.43-24.29,35.59h0Z"/><path d="m184.36,99.6c-1.47-13.14-8.9-33.36-24.29-35.59,2-.22,4.08.08,6.04.72,13.18,5.04,19.59,22.01,18.25,34.87h0Z"/><path d="m283.36,108.25c3.67,4.6,5.5,9.56,5.5,14.9,0,6.35-2.78,11.29-8.35,14.8-3.24,2.09-6.92,3.14-11.05,3.14s-7.7-.78-10.73-2.33c-5.71-2.84-8.91-7.6-9.62-14.3-.07-.47-.11-.95-.11-1.42,0-2.5.72-5.2,2.17-8.11,1.45-2.91,3.79-5.58,7.03-8.01l19.03-14.4c4.16-3.11,6.24-7.13,6.24-12.06s-1.66-9.11-4.97-12.52c-3.31-3.41-7.79-5.12-13.42-5.12-2.82,0-5.88.34-9.2,1.01h-4.23l-.21,12.47h1.06c.07-3.24,1.29-5.8,3.65-7.65,2.36-1.86,5.32-2.79,8.88-2.79s6.54,1.13,8.93,3.4c2.4,2.27,3.59,5.17,3.59,8.72s-1.55,6.51-4.65,8.87l-19.56,14.8c-7.75,5.88-11.63,12.98-11.63,21.29,0,6.22,2.57,11.56,7.72,16.02,4.44,3.85,10.36,5.78,17.76,5.78,4.51,0,8.53-.81,12.05-2.43,6.62-2.98,10.61-8.04,11.94-15.21.21-1.08.32-2.45.32-4.11s-.49-3.92-1.48-6.79c-.99-2.87-2.89-5.76-5.71-8.67l-.95.71Z"/><path d="m204.9,107.54c-2.82,2.91-4.72,5.8-5.71,8.67-.99,2.87-1.48,5.14-1.48,6.79s.11,3.03.32,4.11c1.34,7.17,5.32,12.23,11.94,15.21,3.52,1.62,7.54,2.43,12.05,2.43,7.4,0,13.32-1.93,17.76-5.78,5.14-4.46,7.72-9.8,7.72-16.02,0-8.31-3.88-15.41-11.63-21.29l-19.55-14.8c-3.1-2.36-4.65-5.32-4.65-8.87s1.2-6.45,3.59-8.72c2.4-2.26,5.37-3.4,8.93-3.4s6.52.93,8.88,2.79c2.36,1.86,3.57,4.41,3.65,7.65h1.06l-.21-12.47h-4.23c-3.31-.68-6.38-1.01-9.2-1.01-5.64,0-10.11,1.71-13.43,5.12-3.31,3.41-4.97,7.59-4.97,12.52s2.08,8.96,6.24,12.06l19.03,14.4c3.24,2.43,5.58,5.1,7.03,8.01,1.44,2.91,2.17,5.61,2.17,8.11,0,.47-.03.95-.1,1.42-.71,6.69-3.91,11.46-9.62,14.3-3.03,1.55-6.61,2.33-10.73,2.33s-7.81-1.05-11.05-3.14c-5.57-3.51-8.35-8.45-8.35-14.8,0-5.34,1.83-10.31,5.5-14.9l-.95-.71Z"/><path d="m276.96.67c-8.15-7.78-18.9-11.67-32.24-11.67-.04,0-.08,0-.12,0-.04,0-.08,0-.12,0-13.34,0-24.08,3.89-32.24,11.67-8.16,7.78-12.27,17.85-12.36,30.21,0,14.86,6.07,25.85,18.23,32.97l19.21,1.41v-.94c-12.15-1.33-20.92-5.16-26.3-11.5-4.98-5.87-7.46-13.18-7.46-21.94.24-9.93,4.1-17.93,11.56-24,7.45-6.05,17.28-9.08,29.48-9.09,12.2.01,22.03,3.04,29.48,9.09,7.46,6.06,11.32,14.06,11.56,24,0,8.76-2.49,16.07-7.46,21.94-5.38,6.34-14.15,10.17-26.3,11.5v.94l19.21-1.41c12.15-7.12,18.23-18.11,18.23-32.97-.08-12.36-4.2-22.43-12.36-30.21Z"/><path d="m244.25,217.97c1.34-12.85-5.08-29.82-18.25-34.87-1.96-.64-4.04-.94-6.04-.72,15.39,2.23,22.82,22.43,24.29,35.59h0Z"/><path d="m245.87,217.97c1.47-13.14,8.9-33.36,24.29-35.59-2-.22-4.08.08-6.04.72-13.18,5.04-19.59,22.01-18.25,34.87h0Z"/><path d="m245.87,145.53c-1.34,12.85,5.08,29.82,18.25,34.87,1.96.64,4.04.94,6.04.72-15.39-2.23-22.82-22.43-24.29-35.59h0Z"/><path d="m244.25,145.53c-1.47,13.14-8.9,33.36-24.29,35.59,2,.22,4.08-.08,6.04-.72,13.18-5.04,19.59-22.01,18.25-34.87h0Z"/><path d="m102.29,136.53c2.82-2.91,4.72-5.8,5.71-8.67.99-2.87,1.48-5.14,1.48-6.79s-.11-3.03-.32-4.11c-1.34-7.17-5.32-12.23-11.94-15.21-3.52-1.62-7.54-2.43-12.05-2.43-7.4,0-13.32,1.93-17.76,5.78-5.14,4.46-7.72,9.8-7.72,16.02,0,8.31,3.88,15.41,11.63,21.29l19.56,14.8c3.1,2.36,4.65,5.32,4.65,8.87s-1.2,6.45-3.59,8.72c-2.39,2.26-5.37,3.4-8.93,3.4s-6.52-.93-8.88-2.79c-2.36-1.86-3.58-4.41-3.65-7.65h-1.06l.21,12.47h4.23c3.31.68,6.38,1.01,9.2,1.01,5.64,0,10.11-1.71,13.42-5.12,3.31-3.41,4.97-7.59,4.97-12.52s-2.08-8.96-6.24-12.06l-19.03-14.4c-3.24-2.43-5.58-5.1-7.03-8.01-1.44-2.91-2.17-5.61-2.17-8.11,0-.47.04-.95.11-1.42.71-6.69,3.91-11.46,9.62-14.3,3.03-1.55,6.61-2.33,10.73-2.33s7.81,1.05,11.05,3.14c5.57,3.51,8.35,8.45,8.35,14.8,0,5.34-1.83,10.31-5.5,14.9l.95.71Z"/><path d="m23.83,135.82c-3.66-4.6-5.5-9.56-5.5-14.9,0-6.35,2.78-11.29,8.35-14.8,3.24-2.09,6.92-3.14,11.05-3.14s7.7.78,10.73,2.33c5.71,2.84,8.91,7.6,9.62,14.3.07.47.1.95.1,1.42,0,2.5-.72,5.2-2.17,8.11-1.45,2.91-3.79,5.58-7.03,8.01l-19.03,14.4c-4.16,3.11-6.24,7.13-6.24,12.06s1.66,9.11,4.97,12.52c3.31,3.41,7.79,5.12,13.43,5.12,2.82,0,5.88-.34,9.2-1.01h4.23l.21-12.47h-1.06c-.07,3.24-1.29,5.8-3.65,7.65-2.36,1.86-5.32,2.79-8.88,2.79s-6.54-1.13-8.93-3.4c-2.39-2.27-3.59-5.17-3.59-8.72s1.55-6.51,4.65-8.87l19.55-14.8c7.75-5.88,11.63-12.98,11.63-21.29,0-6.22-2.57-11.56-7.72-16.02-4.44-3.85-10.36-5.78-17.76-5.78-4.51,0-8.53.81-12.05,2.43-6.62,2.98-10.61,8.04-11.94,15.21-.21,1.08-.32,2.45-.32,4.11s.49,3.92,1.48,6.79c.99,2.87,2.89,5.76,5.71,8.67l.95-.71Z"/><path d="m94.94,243.4c-8.15,7.78-18.9,11.67-32.24,11.67-.04,0-.08,0-.12,0-.04,0-.08,0-.12,0-13.34,0-24.08-3.89-32.24-11.67-8.16-7.78-12.27-17.85-12.36-30.21,0-14.86,6.07-25.85,18.23-32.97l19.21-1.41v.94c-12.15,1.33-20.92,5.16-26.3,11.5-4.98,5.87-7.46,13.18-7.46,21.94.24,9.93,4.1,17.93,11.56,24,7.45,6.05,17.28,9.08,29.48,9.09,12.2-.01,22.03-3.04,29.48-9.09,7.46-6.06,11.32-14.06,11.56-24,0-8.76-2.49-16.07-7.46-21.94-5.38-6.34-14.15-10.17-26.3-11.5v-.94l19.21,1.41c12.15,7.12,18.23,18.11,18.23,32.97-.08,12.36-4.2,22.43-12.36,30.21Z"/><path d="m61.36,27.16c1.34,12.85-5.08,29.82-18.25,34.87-1.96.64-4.04.94-6.04.72,15.39-2.23,22.82-22.43,24.29-35.59h0Z"/><path d="m62.99,27.16c1.47,13.14,8.9,33.36,24.29,35.59-2,.22-4.08-.08-6.04-.72-13.18-5.04-19.59-22.01-18.25-34.87h0Z"/><path d="m62.99,99.6c-1.34-12.85,5.08-29.82,18.25-34.87,1.96-.64,4.04-.94,6.04-.72-15.39,2.23-22.82,22.43-24.29,35.59h0Z"/><path d="m61.36,99.6c-1.47-13.14-8.9-33.36-24.29-35.59,2-.22,4.08.08,6.04.72,13.18,5.04,19.59,22.01,18.25,34.87h0Z"/><path d="m160.36,108.25c3.67,4.6,5.5,9.56,5.5,14.9,0,6.35-2.78,11.29-8.35,14.8-3.24,2.09-6.92,3.14-11.05,3.14s-7.7-.78-10.73-2.33c-5.71-2.84-8.91-7.6-9.62-14.3-.07-.47-.11-.95-.11-1.42,0-2.5.72-5.2,2.17-8.11,1.45-2.91,3.79-5.58,7.03-8.01l19.03-14.4c4.16-3.11,6.24-7.13,6.24-12.06s-1.66-9.11-4.97-12.52c-3.31-3.41-7.79-5.12-13.42-5.12-2.82,0-5.88.34-9.2,1.01h-4.23l-.21,12.47h1.06c.07-3.24,1.29-5.8,3.65-7.65,2.36-1.86,5.32-2.79,8.88-2.79s6.54,1.13,8.93,3.4c2.4,2.27,3.59,5.17,3.59,8.72s-1.55,6.51-4.65,8.87l-19.56,14.8c-7.75,5.88-11.63,12.98-11.63,21.29,0,6.22,2.57,11.56,7.72,16.02,4.44,3.85,10.36,5.78,17.76,5.78,4.51,0,8.53-.81,12.05-2.43,6.62-2.98,10.61-8.04,11.94-15.21.21-1.08.32-2.45.32-4.11s-.49-3.92-1.48-6.79c-.99-2.87-2.89-5.76-5.71-8.67l-.95.71Z"/><path d="m81.9,107.54c-2.82,2.91-4.72,5.8-5.71,8.67-.99,2.87-1.48,5.14-1.48,6.79s.11,3.03.32,4.11c1.34,7.17,5.32,12.23,11.94,15.21,3.52,1.62,7.54,2.43,12.05,2.43,7.4,0,13.32-1.93,17.76-5.78,5.14-4.46,7.72-9.8,7.72-16.02,0-8.31-3.88-15.41-11.63-21.29l-19.55-14.8c-3.1-2.36-4.65-5.32-4.65-8.87s1.2-6.45,3.59-8.72c2.4-2.26,5.37-3.4,8.93-3.4s6.52.93,8.88,2.79c2.36,1.86,3.57,4.41,3.65,7.65h1.06l-.21-12.47h-4.23c-3.31-.68-6.38-1.01-9.2-1.01-5.64,0-10.11,1.71-13.43,5.12-3.31,3.41-4.97,7.59-4.97,12.52s2.08,8.96,6.24,12.06l19.03,14.4c3.24,2.43,5.58,5.1,7.03,8.01,1.44,2.91,2.17,5.61,2.17,8.11,0,.47-.03.95-.1,1.42-.71,6.69-3.91,11.46-9.62,14.3-3.03,1.55-6.61,2.33-10.73,2.33s-7.81-1.05-11.05-3.14c-5.57-3.51-8.35-8.45-8.35-14.8,0-5.34,1.83-10.31,5.5-14.9l-.95-.71Z"/><path d="m153.96.67c-8.15-7.78-18.9-11.67-32.24-11.67-.04,0-.08,0-.12,0-.04,0-.08,0-.12,0-13.34,0-24.08,3.89-32.24,11.67-8.16,7.78-12.27,17.85-12.36,30.21,0,14.86,6.07,25.85,18.23,32.97l19.21,1.41v-.94c-12.15-1.33-20.92-5.16-26.3-11.5-4.98-5.87-7.46-13.18-7.46-21.94.24-9.93,4.1-17.93,11.56-24,7.45-6.05,17.28-9.08,29.48-9.09,12.2.01,22.03,3.04,29.48,9.09,7.46,6.06,11.32,14.06,11.56,24,0,8.76-2.49,16.07-7.46,21.94-5.38,6.34-14.15,10.17-26.3,11.5v.94l19.21-1.41c12.15-7.12,18.23-18.11,18.23-32.97-.08-12.36-4.2-22.43-12.36-30.21Z"/><path d="m121.25,217.97c1.34-12.85-5.08-29.82-18.25-34.87-1.96-.64-4.04-.94-6.04-.72,15.39,2.23,22.82,22.43,24.29,35.59h0Z"/><path d="m122.87,217.97c1.47-13.14,8.9-33.36,24.29-35.59-2-.22-4.08.08-6.04.72-13.18,5.04-19.59,22.01-18.25,34.87h0Z"/><path d="m122.87,145.53c-1.34,12.85,5.08,29.82,18.25,34.87,1.96.64,4.04.94,6.04.72-15.39-2.23-22.82-22.43-24.29-35.59h0Z"/><path d="m121.25,145.53c-1.47,13.14-8.9,33.36-24.29,35.59,2,.22,4.08-.08,6.04-.72,13.18-5.04,19.59-22.01,18.25-34.87h0Z"/><path d="m37.36,108.25c3.67,4.6,5.5,9.56,5.5,14.9,0,6.35-2.78,11.29-8.35,14.8-3.24,2.09-6.92,3.14-11.05,3.14s-7.7-.78-10.73-2.33c-5.71-2.84-8.91-7.6-9.62-14.3-.07-.47-.11-.95-.11-1.42,0-2.5.72-5.2,2.17-8.11,1.45-2.91,3.79-5.58,7.03-8.01l19.03-14.4c4.16-3.11,6.24-7.13,6.24-12.06s-1.66-9.11-4.97-12.52c-3.31-3.41-7.79-5.12-13.42-5.12-2.82,0-5.88.34-9.2,1.01h-4.23l-.21,12.47h1.06c.07-3.24,1.29-5.8,3.65-7.65,2.36-1.86,5.32-2.79,8.88-2.79s6.54,1.13,8.93,3.4c2.4,2.27,3.59,5.17,3.59,8.72s-1.55,6.51-4.65,8.87l-19.56,14.8c-7.75,5.88-11.63,12.98-11.63,21.29,0,6.22,2.57,11.56,7.72,16.02,4.44,3.85,10.36,5.78,17.76,5.78,4.51,0,8.53-.81,12.05-2.43,6.62-2.98,10.61-8.04,11.94-15.21.21-1.08.32-2.45.32-4.11s-.49-3.92-1.48-6.79c-.99-2.87-2.89-5.76-5.71-8.67l-.95.71Z"/><path d="m-41.1,107.54c-2.82,2.91-4.72,5.8-5.71,8.67-.99,2.87-1.48,5.14-1.48,6.79s.11,3.03.32,4.11c1.34,7.17,5.32,12.23,11.94,15.21,3.52,1.62,7.54,2.43,12.05,2.43,7.4,0,13.32-1.93,17.76-5.78,5.14-4.46,7.72-9.8,7.72-16.02,0-8.31-3.88-15.41-11.63-21.29l-19.55-14.8c-3.1-2.36-4.65-5.32-4.65-8.87s1.2-6.45,3.59-8.72c2.4-2.26,5.37-3.4,8.93-3.4s6.52.93,8.88,2.79c2.36,1.86,3.57,4.41,3.65,7.65h1.06l-.21-12.47h-4.23c-3.31-.68-6.38-1.01-9.2-1.01-5.64,0-10.11,1.71-13.43,5.12-3.31,3.41-4.97,7.59-4.97,12.52s2.08,8.96,6.24,12.06l19.03,14.4c3.24,2.43,5.58,5.1,7.03,8.01,1.44,2.91,2.17,5.61,2.17,8.11,0,.47-.03.95-.1,1.42-.71,6.69-3.91,11.46-9.62,14.3-3.03,1.55-6.61,2.33-10.73,2.33s-7.81-1.05-11.05-3.14c-5.57-3.51-8.35-8.45-8.35-14.8,0-5.34,1.83-10.31,5.5-14.9l-.95-.71Z"/><path d="m30.96.67C22.81-7.11,12.06-11-1.27-11c-.04,0-.08,0-.12,0-.04,0-.08,0-.12,0-13.34,0-24.08,3.89-32.24,11.67-8.16,7.78-12.27,17.85-12.36,30.21,0,14.86,6.07,25.85,18.23,32.97l19.21,1.41v-.94c-12.15-1.33-20.92-5.16-26.3-11.5-4.98-5.87-7.46-13.18-7.46-21.94.24-9.93,4.1-17.93,11.56-24C-23.43.84-13.6-2.19-1.39-2.2c12.2.01,22.03,3.04,29.48,9.09,7.46,6.06,11.32,14.06,11.56,24,0,8.76-2.49,16.07-7.46,21.94-5.38,6.34-14.15,10.17-26.3,11.5v.94l19.21-1.41c12.15-7.12,18.23-18.11,18.23-32.97-.08-12.36-4.2-22.43-12.36-30.21Z"/><path d="m-.13,217.97c1.47-13.14,8.9-33.36,24.29-35.59-2-.22-4.08.08-6.04.72C4.95,188.15-1.46,205.11-.13,217.97H-.13Z"/><path d="m-.13,145.53c-1.34,12.85,5.08,29.82,18.25,34.87,1.96.64,4.04.94,6.04.72-15.39-2.23-22.82-22.43-24.29-35.59H-.13Z"/><path d="m217.94-8.85c-8.15,7.78-18.9,11.67-32.24,11.67-.04,0-.08,0-.12,0-.04,0-.08,0-.12,0-13.34,0-24.08-3.89-32.24-11.67-8.16-7.78-12.27-17.85-12.36-30.21,0-14.86,6.07-25.85,18.23-32.97l19.21-1.41v.94c-12.15,1.33-20.92,5.16-26.3,11.5-4.98,5.87-7.46,13.18-7.46,21.94.24,9.93,4.1,17.93,11.56,24,7.45,6.05,17.28,9.08,29.48,9.09,12.2-.01,22.03-3.04,29.48-9.09,7.46-6.06,11.32-14.06,11.56-24,0-8.76-2.49-16.07-7.46-21.94-5.38-6.34-14.15-10.17-26.3-11.5v-.94l19.21,1.41c12.15,7.12,18.23,18.11,18.23,32.97-.08,12.36-4.2,22.43-12.36,30.21Z"/><path d="m94.94-8.85C86.79-1.07,76.04,2.82,62.71,2.82c-.04,0-.08,0-.12,0-.04,0-.08,0-.12,0-13.34,0-24.08-3.89-32.24-11.67-8.16-7.78-12.27-17.85-12.36-30.21,0-14.86,6.07-25.85,18.23-32.97l19.21-1.41v.94c-12.15,1.33-20.92,5.16-26.3,11.5-4.98,5.87-7.46,13.18-7.46,21.94.24,9.93,4.1,17.93,11.56,24,7.45,6.05,17.28,9.08,29.48,9.09,12.2-.01,22.03-3.04,29.48-9.09,7.46-6.06,11.32-14.06,11.56-24,0-8.76-2.49-16.07-7.46-21.94-5.38-6.34-14.15-10.17-26.3-11.5v-.94l19.21,1.41c12.15,7.12,18.23,18.11,18.23,32.97-.08,12.36-4.2,22.43-12.36,30.21Z"/></pattern></defs><g class="cls-1"><rect class="cls-3" x="-.25" y="3" width="1403.83" height="662"/></g></svg>