<?xml version="1.0" encoding="UTF-8"?><svg id="Layer_1" xmlns="http://www.w3.org/2000/svg" viewBox="0 0 277 47"><defs><style>.cls-1{fill:#8039aa;}</style></defs><path class="cls-1" d="m15.56,21.88c-.9.2.48.77-.59.34.12-.35.29-.62.59-.34Z"/><path class="cls-1" d="m256.9,22.38c-2.89,2.29-6.71-.02-9.88,1.44-.37.1.1-1.25-.74-.95-3.07,1.78-7.91.72-11.66-.65l.23-.35c-.71-.26-1.58.92-2.34.75,0-.24.24-.33.07-.66-.19.71-1.37.33-1.69.86-.3-.28-.27-.84-.65-1.15l-.43.81c-1.2,1.92-2.92-.14-4.56.86.08-.19.24-.33.11-.52-2.63,1.17-5.93.95-8.87,1.38.12-.29.23-.81.05-1.13-.15.85-1.05,1.07-1.84,1.23-.36-.87-1.35.8-2.28.32l.08-.19c-.68.91-1.02-.53-1.57.57l-.43-.69c-.3,1.23-.99-.64-1.55-.01l.02.25c-.53.3-.81-.32-1.3-.11l-.05-.14c-1.16.33-1.83-.36-1.8.6-.41-.77,1.12-.35.48-1.47-3.81.99-7.74.8-11.57.81-.44-.39-.71-.5-.81-.87-.38.19-1.44.18-1.79.67.13-.02-.25-.49-.45-.54-.7-.36-.76,1.06-1.53.63.3-.26.41-.57.31-.92-.65.75-1.53.63-2.3.87.12-.16.31-.26.28-.56-.84.85-1.54-.18-2.28.36l.28-.56c-1.19-.67-.35,1.16-1.38.76.25-.17.16-.39.21-.62-.96,1.01-2.52.68-3.48,1.02.06-.08.04-.23.04-.23-1.05.13-2.14-.19-3.29.25-.42-.25.14-1.35-.97-1.15.04,1.11-1.88.46-1.22,1.72-.94-.18-2.44-.6-3.07-.22.42-.42-.46-1.36.32-1.46l-.59-.67c.09-.46.61.15.42-.42-.39.04-1.54.49-1.89.3-.73.68-1.4,1.96-2.58,2.1.55-.43-.32-1.23.06-1.42l-1.65,2.13c-.39.05-.09-.88-.65-.59.03.3-.22.48-.39.71-.15-.13-1.63.28-1.8-.82-.17-.43.64-.23.21-.62-.73.01-.76.39-1.48.4v-.15c-.49-.16-1.43.47-.9,1.07.33.04-.13-.66.37-.34-.34.64-1.18.81-1.9.83.25-.18.22-.47.32-.78-.97.86-2.01,1.13-3.1,1.49-.02.52.41-.95.57-.67-1.4-.72-2.88,1.02-4.04-.03.19-.09.1.74.09.59-.67-.07-.64-.82-1.08-.54-.04-.44-.55.14-1,.28-.23.32-.12-.22.28-.27-.63.38-3.14,1.06-4.59.41.03.29-.89,1.08-1.22,1.04l.13-.69c-.3-.41-1.12.06-1.17-.53-.71.83,2.74-.71,1.78-.07-.25-.57-1.34,1.09-1.13.16-.67.02-1.32.8-1.96.15.19.11.54-.95,0-.9-.95.12-.27.33-1.04.56l-.48.28c-.03.67-.85-.09-.5.66-.12-.55-1.38.34-1.29-.77l.13-.87c-.41.07-.67.92-1,1.31-.05-.08-.16-.26-.14-.4-.07,1.33-.98-.11-1.47.92-.86-.46-2.19-.04-2.6-.87-.66.4-1.27.89-2.03.6.15-.12.36-.16.4-.45-.48-.39-.59-.04-1.03.17.1-.2-.95-.78-1.48-1.25-.66.4-.43,1.12-.5,1.56-.6-1.32-1.86.85-2.62-.35.23-.18.96-.65.41-.98-.6-1.31-1.22.97-2.19.34l.24,1.09c-.43-.68-1.43.63-1.33-.48-.33.39-1.15-.36-1.04.71-1.6-.9-3.88.54-4.87-1.37-.23.18-.8,0-.68.54.38.59.53-.43.67-.02-.21.03-.25.32-.27.47-.5-.24-.89-.32-.42-1.21-1.1-.66-1.14,1.81-2.54,1.4.06-.44-.04-.61-.45-.54l-.78.76c-.91-.18-.52-1-.54-1.75-.49.13-1.08.09-1.3.65l-.59-.94c.43.68-.4.45-.63.64l.23-.18c-.09-.31-.65-.12-.93-.03.07.46.64.65.95.78-.25.33-.63.25-.96.64.11-.73-.79-.52-1.18-.6-.44-.16-.5.66-.63.63-.01-.38-.72-.06-.38-.6.15-.12.35.37.59.04-.29-.28-.26-.95-.86-.46-.46.36.12,1.45-.75.98.23-.18.27-.48.45-.74l-.81-.38-.03.67c-.11-.17-.03-.23-.08-.32-.24.7-1.24.22-1.42,1.01-.41.07-.86-.46-1.25-.54l.07-.06c-.48-.39-1.11-.13-1.51.32l.02-.15c-.26-.05-.88.05-1.2.45-.66-.5-.22-2.52-.95-1.68-.67.02-1.05,1.22-.78,1.65-1.2-.45-2.57.64-3.68-.4-.17.27-.06.44-.42.6-1.76-.26-3.73.79-5.13-.52.51-.28.03-.67.02-1.05-.42.6-.51-.62-.66.41.04.6,0,.9.5,1.14-1.05.32-2.65.32-3.24-.24.29.28.07.46-.16.65.08-.96-.7-1.11-1.29-.77l-.08.59-.38-.6c-.23.19-.25,1.23-.83.67-.03-.23-.06-.46-.17-.62-.61.48-1.46,1.29-2.12.8l-.54-.86c-.28.09-.76.61-.26.86-1.12-.52-1.85-.58-2.21-1.32-1.94,1.81-4.75,1.88-7,1.75l.07-.44c-.6-.41-.31.77-.74.46.2-.42-.46-.91.01-1.42-.87-.46-1.12.76-1.68.96-.09.58.45-.37.34.36-.1.21-1.2-.45-1.33.42-.22-.34-.05-.98.07-1.34l-.53.42c-.65-1.02,1.47-1.82.8-3.08l-.49.14c-.46-.91,1.29-1.03.07-1.34-.53.43-.99,1.7-.51,2.08-1.1.24-.51,2.08-1.7,2.01-.32-.51.95-.12.72-.84-.56-.7-1.12.39-1.62.15.55.33.09,1.21-.27,1.37-.6-.41.39-.83-.46-.91-.14.5-.93.88-.25,1.23-.31,1.14-.89-.32-1.36.57-.28-.8.88-1.86-.06-2.26.15.78-1.16,1.05-.66,2.2-.37-.22-.41-.83-.14-1.31-.53-.48-1.28,1.41-1.45-.12l-.18.79c-.16-.26-.4-.45-.67-.88-.46-.01-1.5,1.07-1.45-.12-.15.12-1.21.07-.8.9.66.5.76-.6,1.12.51-.46-.91-.95.12-1.33.42l-.06-.46c-.23.18-.75.08-.89.58.17-.27.08-.58-.1-.69l-.24.7c-.92.35-.22-1.24-1.11-1.03l.68-.55c-.15.12-.45-.54-.88-.32-.17.64-.48,1.41-.62,1.91-.51.28-.23-.72-.72-.07l.65-.77c.1-.21-.44-1.06-1.11-1.04-.43.22-1.1,1.15-.42,1.5-.34,0-.81-.38-.54-.85-.77.22.1.69-.56,1.09-.27-.43-1.11-1.04-1.62-1.66l.69-1.07h-.46c.6-.87-.3-.67.03-1.57-.31-.14-.69.17-1,.4.92,1.45-1.03,1.99-.76,3.31-1.26.36-.79-3.22-2.1-1.15.21.34-.4,1.35.39.97-.78-.15-.53,1.33-1.45.78.68-.54-.73-1.34.25-2.13-.07.44.55.33.7.21-.32-.51.07-1.33-.73-1.33-.49.13-1.16.15-1.06.84.02.76.75-.08.43.69-.97.26-1.13-.89-1.54.45.61-.1.77.68.76,1.2l-.71.32.14-.5c-1.15-.36-.34.91-1.45.78l-.52-1c.26-.86,1.61.38,1.42-1.01-.72-.06-.96.65-1.64.29.15-.12.36-.15.51-.28-.26-.05-.52-1.9-1.55-.81-.53.42-.14.5-.15,1.02-1.16.16-1.5.69-2.25.77.15-1.02-1.32-.1-.49-1.14.38.6,2.05.54,2.47-.43-.42-1.21.91.17,1.16-1.05-.93-.03-.88-1.22-1.03-2-.26-.05-.51.27-.66.4-.11.73.23.72.25,1.48-1.04-.2-2.04.21-2.61.92-.35-.36-.24-1.1.17-1.17-1.23.22-2.55.12-3.72-.1.76,1.2-1.31.28-.79,1.28.63.27,1.17,1.12.82,1.66-.39-.08.01-.52-.15-.78-.5.65-.78-1.05-1.27-.02,1.13-.39.22-1.46.43-2.4-.81.53.03-.67-.77-.67-.81.52-1.8.93-2.71,1.14-1.13-.89-2.86-.02-3.87.02-.53-.47-.17-1.54-.74-1.72-.67.02.5,1.15-.5.66l.1-.21c-.3.25-1.83-.72-2.12.8l.31-1.15c-.19-.1-.36.16-.51.28,0-.37-.22-.71.08-.96-.61-.79-1.29.13-1.96.16l.43.68c-1.14.53-1.91-.14-3.02.1l.03-.67-.66.4c.16-.64-.44-1.06-.79-.52l1.71-1.63c.48.39-.52.8-.22,1.46.25.57,1.28.39,1.44-.25-.39-.07-.41.07-.71.31-.13-.93.47-.89.76-1.51-.21.04-.5-.24-.54.05.4-.45.81-.52,1.48-.54-.46.36.25.57.07.84.05-.82.7-1.07,1.53-.84.59.94,1.56-.61,2.52-.35-.39.83-.89,1.49-1.47,1.82.6.42.67-.02,1.28.39.29-.62.5-1.56,1.29-1.93l.04.61c.71-.31.71-1.21,1.62-1.04,1.56.3,3.16.3,4.35.38l.05.61c.66-1.3,2.2-.48,3.09-1.06,1.52.59,3.29-.58,4.07.47,2.67-.47,5.01-.92,7.78-.7l-.47.89c.5-.65.32.51.81.38-.56-.71.67-.92,1.02-1.46,1.23.69,2.82-.06,3.91-.68l.04.61c1.1-1.14,2.42-.14,3.8.05.16.25.41.82.82.76.75-.98,1.14-.91,2.23-1.53.8,0,2.1.24,2.91.63,3.01-1.38,6.08-.5,9.21-1.33l.23.72c3.03-1.53,6.76-.14,9.35-.92l-.25,1.22c.81.38,1.85-.32,1.64-1.19.81.37,2.03-.59,2.55.41.83.23,1.02-.56,1.71-.73,1.66.46,2.28.36,3.85.13l-.39-.08c-.17.27-.19.79.2.87.58-.34,2.15.33,1.57-1.13,1.68.84,3.91-.69,5.54.45-.14-.4.27-.48.45-.74,1.47-.02,3.01.79,4.19.12.23.2-.37.68.23.72.35-.15,0-.52.44-.74,2.38-.74,4.82.77,6.99.57,3.85-.77,7.86-.38,11.55-.51l-.04.29c1.24-1.12,2.9,1.15,3.88-.54.29.28,1.12.13.9.7.98-.79,2.75.74,4.18-.26-.13-.03-.21.03-.36.16,1.44.65,2.7-.24,4.22.35-.15.13-.43.22-.48.51.58.56,1.39-1.24,1.71.18.34-.01.24-.71.03-.67,3.32.55,6.86-.35,10.31-.67,2.47.84.15,2.38,2.1,1.33.16.27.12-.54.14-.25.76-.39,1.18,1.58,1.7.84-.22-.87.35-.49.36-1.01,1.51.56,1.82,1.35,3.01.69l-.09.46c1.4-1.29,3.02-.6,4.2-2.09,7.72-.27,15.12-1.1,22.64-1.27,7.44.28,14.72-.39,22.28.4,1.77,1.2,1.9,1.17,3.85.68-.08.19-.2.24-.07.42.1-.98,1.37-.09,1.55-1.03,2.79.18,5.37-.08,8.24-.09-.45.11-.68.91-.14.85l.57-.63.09.27c.37-.15.77-.63.39-.95,7.22-.85,14.32,1.12,21.39.88,1.68.41,4.07.03,5.89-.17,5.41,1.31,10.28,2.37,15.77,1.45,0,0-.72,2.54-2.98,3.13Z"/><path class="cls-1" d="m16.64,21.78c.19.49.82.76.32,1.42-.06-.46-.39-.98-.32-1.42Z"/><path class="cls-1" d="m33.43,26.84c.02-.15.24.2.29.28-.21.04-.4.45-.57.19.21-.04.18-.27.27-.48Z"/><path class="cls-1" d="m37.72,27.13c-.06.44-.98.79-1.53.84l1.53-.84Z"/><path class="cls-1" d="m41.72,28.94c.35.37.25.57-.22.56-.03-.23.12-.35.22-.56Z"/><path class="cls-1" d="m42,27.94c.33,0,.5.25.66.5-.01-.38-.77.24-.66-.5Z"/><path class="cls-1" d="m50.69,29.21c.21-.03.66-.4.86.09-.22-.34-1.02.56-.86-.09Z"/><path class="cls-1" d="m54.72,28.55c.13.03.18.11.34-.01.24.2-.01.52-.22.56l-.12-.55Z"/><polygon class="cls-1" points="128.19 26.8 127.75 27.01 127.82 26.58 128.19 26.8"/><path class="cls-1" d="m160.38,26.77c.44-.28.3.41.38.48-.39.04.15-.54-.38-.48Z"/><polygon class="cls-1" points="177.74 24.59 177.61 24.6 177.65 23.7 177.74 24.59"/></svg>