<?xml version="1.0" encoding="UTF-8"?><svg id="Layer_1" xmlns="http://www.w3.org/2000/svg" viewBox="0 0 185.5 242"><path d="m129.2,124.96c2.59,2.76,4.34,5.5,5.24,8.22.91,2.73,1.36,4.87,1.36,6.44s-.1,2.87-.29,3.89c-1.23,6.79-4.88,11.6-10.97,14.42-3.24,1.54-6.93,2.31-11.07,2.31-6.8,0-12.23-1.83-16.31-5.48-4.72-4.23-7.09-9.29-7.09-15.19,0-7.88,3.56-14.61,10.68-20.19l17.96-14.03c2.85-2.24,4.27-5.04,4.27-8.41s-1.1-6.12-3.3-8.27c-2.2-2.15-4.93-3.22-8.2-3.22s-5.99.88-8.15,2.64c-2.17,1.76-3.28,4.18-3.35,7.26h-.97l.19-11.82h3.88c3.04-.64,5.86-.96,8.45-.96,5.18,0,9.29,1.62,12.33,4.85,3.04,3.24,4.56,7.19,4.56,11.87s-1.91,8.49-5.73,11.44l-17.47,13.65c-2.98,2.31-5.13,4.84-6.46,7.59-1.33,2.76-1.99,5.32-1.99,7.69,0,.45.03.9.1,1.34.65,6.35,3.59,10.86,8.83,13.55,2.78,1.47,6.07,2.21,9.85,2.21s7.17-.99,10.14-2.98c5.11-3.33,7.67-8.01,7.67-14.03,0-5.06-1.68-9.77-5.05-14.13l.88-.67Z"/><path d="m57.14,125.63c-3.36,4.36-5.05,9.07-5.05,14.13,0,6.02,2.56,10.7,7.67,14.03,2.98,1.98,6.36,2.98,10.14,2.98s7.07-.74,9.85-2.21c5.24-2.69,8.19-7.21,8.83-13.55.06-.45.1-.9.1-1.34,0-2.37-.66-4.93-1.99-7.69-1.33-2.76-3.48-5.29-6.46-7.59l-17.47-13.65c-3.82-2.95-5.73-6.76-5.73-11.44s1.52-8.63,4.56-11.87c3.04-3.23,7.15-4.85,12.33-4.85,2.59,0,5.4.32,8.45.96h3.88l.19,11.82h-.97c-.07-3.08-1.18-5.49-3.35-7.26-2.17-1.76-4.89-2.64-8.16-2.64s-6,1.07-8.2,3.22c-2.2,2.15-3.3,4.9-3.3,8.27s1.42,6.17,4.27,8.41l17.96,14.03c7.12,5.58,10.68,12.3,10.68,20.19,0,5.9-2.36,10.96-7.09,15.19-4.08,3.65-9.51,5.48-16.31,5.48-4.14,0-7.83-.77-11.07-2.31-6.08-2.82-9.74-7.62-10.97-14.42-.19-1.02-.29-2.32-.29-3.89s.45-3.71,1.36-6.44c.91-2.72,2.65-5.46,5.24-8.22l.87.67Z"/><path d="m122.45,23.64c-7.49-7.38-17.36-11.07-29.61-11.07-.04,0-.07,0-.11,0-.04,0-.07,0-.11,0-12.25,0-22.12,3.69-29.61,11.07-7.49,7.38-11.27,16.93-11.35,28.65,0,14.09,5.58,24.51,16.74,31.26l17.64,1.33v-.89c-11.16-1.26-19.21-4.89-24.16-10.9-4.57-5.56-6.85-12.5-6.85-20.8.22-9.42,3.76-17,10.62-22.75,6.84-5.74,15.87-8.61,27.08-8.62,11.21.01,20.23,2.88,27.08,8.62,6.85,5.75,10.39,13.33,10.62,22.75,0,8.31-2.28,15.24-6.85,20.8-4.94,6.01-12.99,9.64-24.16,10.9v.89l17.64-1.33c11.16-6.75,16.74-17.17,16.74-31.26-.08-11.72-3.86-21.27-11.35-28.65Z"/><path d="m92,160.75c1.23,12.18-4.66,28.28-16.77,33.06-1.8.61-3.71.89-5.55.68,14.13-2.11,20.96-21.27,22.31-33.74h0Z"/><path d="m93.5,160.75c1.35,12.46,8.18,31.63,22.31,33.74-1.84.21-3.75-.07-5.55-.68-12.1-4.78-17.99-20.87-16.77-33.06h0Z"/><path d="m93.5,229.43c-1.23-12.18,4.66-28.28,16.77-33.06,1.8-.61,3.71-.89,5.55-.68-14.13,2.11-20.96,21.27-22.31,33.74h0Z"/><path d="m92,229.43c-1.35-12.46-8.18-31.63-22.31-33.74,1.84-.21,3.75.07,5.55.68,12.1,4.78,17.99,20.87,16.77,33.06h0Z"/><path d="m33,47.75c1.23,12.18-4.66,28.28-16.77,33.06-1.8.61-3.71.89-5.55.68,14.13-2.11,20.96-21.27,22.31-33.74h0Z"/><path d="m34.5,47.75c1.35,12.46,8.18,31.63,22.31,33.74-1.84.21-3.75-.07-5.55-.68-12.1-4.78-17.99-20.87-16.77-33.06h0Z"/><path d="m34.5,116.43c-1.23-12.18,4.66-28.28,16.77-33.06,1.8-.61,3.71-.89,5.55-.68-14.13,2.11-20.96,21.27-22.31,33.74h0Z"/><path d="m33,116.43c-1.35-12.46-8.18-31.63-22.31-33.74,1.84-.21,3.75.07,5.55.68,12.1,4.78,17.99,20.87,16.77,33.06h0Z"/><path d="m151,47.75c1.23,12.18-4.66,28.28-16.77,33.06-1.8.61-3.71.89-5.55.68,14.13-2.11,20.96-21.27,22.31-33.74h0Z"/><path d="m152.5,47.75c1.35,12.46,8.18,31.63,22.31,33.74-1.84.21-3.75-.07-5.55-.68-12.1-4.78-17.99-20.87-16.77-33.06h0Z"/><path d="m152.5,116.43c-1.23-12.18,4.66-28.28,16.77-33.06,1.8-.61,3.71-.89,5.55-.68-14.13,2.11-20.96,21.27-22.31,33.74h0Z"/><path d="m151,116.43c-1.35-12.46-8.18-31.63-22.31-33.74,1.84-.21,3.75.07,5.55.68,12.1,4.78,17.99,20.87,16.77,33.06h0Z"/></svg>