<?xml version="1.0" encoding="UTF-8"?><svg id="Layer_1" xmlns="http://www.w3.org/2000/svg" viewBox="0 0 277.53 277.53"><defs><style>.cls-1{fill:#13623c;stroke-width:0px;}</style></defs><path class="cls-1" d="M268.22,139.31c-2.77-5.93-6.31-12.4-10.8-19.81-3.77-6.21-7.86-12.48-11.71-18.33-.5-.76-1.15-1.65-1.83-2.58-.82-1.11-1.65-2.26-2.33-3.31l-2.81-.05c-2.57-.04-8.71-.07-18.77-.1-.25.77-.51,1.5-.77,2.23-.94,2.62-2.12,5.27-3.52,7.9,5.98.07,10.7.14,14.06.23,6.74.17,6.77.21,7.21.96,2.16,3.6,9.74,16.6,16.06,31.83,3.1,7.46,5.37,14.24,6.75,20.13,2.01,8.6,2.13,15.39.34,20.18v.02s-.02.02-.02.02c-4.99,12.08-16.94,18.97-36.52,21.03.47,4.65.63,9.6.49,14.73-.05,2.13-.17,4.3-.36,6.45,15.46-1.82,28.71-7.21,38.39-15.65,7.33-6.39,12.54-14.91,14.67-23.97.86-3.84,1.01-8.09.43-12.99-1.24-9.21-4.18-18.67-8.96-28.91Z"/><path class="cls-1" d="M170.41,191.44c-1.45-1.13-2.77-2.36-3.94-3.65-.71-.78-1.42-1.7-2.1-2.75-2.77,0-5.56,0-8.37,0-2.53,0-5.07,0-7.62,0,.68,2.17,1.47,4.28,2.4,6.43,3.33,7.63,10.94,15.27,20.88,20.95,3.16,1.8,6.32,3.27,9.39,4.37.89.33,1.82.64,3.03,1.03,4.13,1.31,8.59,2.28,13.28,2.89.37-4.55.47-8.9.51-11.89,0-3.44-.05-6.19-.17-8.72-5.47-.38-10.16-1.15-14.3-2.33-5.1-1.45-9.35-3.52-12.97-6.34Z"/><path class="cls-1" d="M113.56,184.43c-.8,1.3-1.64,2.43-2.49,3.36-1.03,1.14-2.18,2.23-3.44,3.25.04,7.6.09,14.4.15,20.26,9.01-5.55,15.87-12.69,18.98-19.83,1.18-2.7,2.13-5.34,2.89-8.05,1.1-3.89,1.78-7.77,2.15-12.21.32-3.86.36-7.6.4-11.55.01-1.29.03-2.62.05-3.95-3.33.44-6.62.95-9.79,1.53-1.02,5.38-2.19,10.23-3.48,14.44-1.63,5.29-3.45,9.58-5.42,12.77Z"/><path class="cls-1" d="M133.07,104.94h10.22c.34-3.52.89-6.72,1.7-9.89h-14.11c-6.2,0-12.36,0-18.4,0h-4.89c-.01,3.23-.03,6.55-.03,9.92,1.42,0,2.85,0,4.29-.01,1.97,0,3.96,0,5.97-.01l13.72-.02h1.54Z"/><path class="cls-1" d="M171.22,95.06h-5.45c-1.53,2.59-2.97,5.91-4.3,9.9,1.41,0,2.81,0,4.21,0,1.88,0,3.74,0,5.59.01,2.29,0,4.55.02,6.77.02,1.93,0,3.84.01,5.72.02,1.1,0,2.18.01,3.26.02.93,0,1.86,0,2.77.01,2.12-2.85,3.78-6.13,5.03-9.98-3.57,0-7.27-.01-11.08-.01-2.06,0-4.14,0-6.26,0-2.06,0-4.15,0-6.26,0Z"/><path class="cls-1" d="M90.52,105.04c.66,0,1.32,0,1.98,0,0-1.73,0-3.44,0-5.14,0-1.62,0-3.23,0-4.82-3.97,0-7.82,0-11.52.01-8.43.01-16.06.03-22.49.04-10.62.03-17.06.06-19.7.1l-2.81.05c-.68,1.06-1.52,2.2-2.33,3.31-.68.93-1.33,1.82-1.83,2.58-3.76,5.71-7.74,11.82-11.43,17.88,1.18,4.89,2.97,10.38,5.35,16.38,6.03-13.94,12.82-25.59,14.86-28.99.44-.72.47-.78,7.2-.95,3.75-.09,9.2-.18,16.2-.25,6.49-.07,14.26-.13,23.12-.17,1.12,0,2.26-.01,3.41-.02Z"/><path class="cls-1" d="M66.7,221.54c4.26,0,8.35-.22,12.18-.67,4.82-.55,9.42-1.49,13.69-2.78-.02-5.8-.03-12.52-.04-19.89-4.03,1.01-8.57,1.65-13.82,1.97-2.74.16-5.72.23-9.1.23-.31,0-.63,0-.94,0-5.17-.06-9.43-.26-13.41-.63-20.35-1.89-32.72-8.81-37.82-21.16v-.02s-.02-.02-.02-.02c-1.76-4.69-1.68-11.31.22-19.67-3.8-6.26-6.91-11.9-9.47-17.13-4.13,9.31-6.7,17.98-7.84,26.45-.57,4.88-.43,9.13.43,12.98,2.13,9.06,7.34,17.57,14.67,23.96,10,8.72,23.81,14.19,39.94,15.82,2.52.26,5.15.42,7.84.49,1.17.03,2.35.05,3.48.05Z"/><path class="cls-1" d="M106.26,172.54c-4.27-.01-8.45-.03-12.49-.04-2.04,0-4.06-.02-6.03-.03-2.12,2.84-3.77,6.12-5.03,9.98l11.07.02c2.01,0,4.05,0,6.11,0,2.11,0,4.25,0,6.42,0,1.8,0,3.61,0,5.43,0,1.52-2.59,2.94-5.91,4.26-9.91-3.29,0-6.54-.01-9.74-.02Z"/><path class="cls-1" d="M163.97,93.1c.8-1.28,1.64-2.41,2.5-3.36,1.04-1.15,2.19-2.24,3.44-3.25-.04-7.6-.09-14.4-.15-20.25-9.01,5.55-15.87,12.69-18.98,19.82-1.17,2.68-2.11,5.32-2.89,8.06-1.1,3.9-1.78,7.77-2.15,12.21-.32,3.91-.36,7.69-.4,11.7-.01,1.3-.03,2.61-.05,3.93,2.56-.35,5.95-.86,9.68-1.54,1.02-5.39,2.21-10.28,3.53-14.55,1.64-5.28,3.48-9.57,5.47-12.76Z"/><path class="cls-1" d="M152.79,134.79c-2.3-.05-4.87-.17-7.03-.29.11,2.96.08,6.97-.09,9.98-.13,2.27-.36,6.55-.39,9.79,0,.31,0,.61,0,.88.03,1.45.04,2.92.06,4.36.04,3.6.07,7.02.31,10.52,4.17,0,8.31,0,12.41-.01-1.16-4.04-2.22-8.62-3.15-13.65-.73-3.94-1.37-8.05-1.89-12.21-.38-3.02-.46-6.48-.23-9.37Z"/><path class="cls-1" d="M124.66,142.74c1.95.04,4.34.14,7.13.3-.13-3.34-.12-7.41.04-10,.25-4.01.39-7.26.41-9.64,0-.36,0-.7,0-1.02-.03-1.5-.05-3.03-.06-4.5-.04-3.55-.07-6.93-.31-10.38h-.35s-12,.02-12,.02c1.19,4.1,2.27,8.73,3.2,13.77.92,4.93,1.52,9.29,1.87,12.09.34,2.69.35,6.16.06,9.37Z"/><path class="cls-1" d="M31.82,176.37c.5.76,1.15,1.65,1.84,2.58.81,1.11,1.65,2.25,2.33,3.31l2.81.05c2.66.04,8.97.07,18.76.09.23-.71.49-1.47.78-2.23.92-2.59,2.1-5.24,3.51-7.89-5.98-.07-10.7-.14-14.05-.23-6.73-.17-6.76-.23-7.2-.94-2.18-3.65-9.79-16.71-16.07-31.85-3.1-7.45-5.37-14.22-6.75-20.13-2.02-8.6-2.13-15.38-.34-20.17v-.02s.02-.02.02-.02c4.99-12.09,16.94-18.97,36.52-21.04-.47-4.61-.63-9.56-.49-14.73.05-2.12.17-4.28.35-6.45-15.47,1.82-28.71,7.21-38.39,15.64-7.33,6.39-12.54,14.91-14.67,23.98-.86,3.84-1.01,8.09-.43,12.99,1.23,9.18,4.17,18.64,8.96,28.9,2.78,5.96,6.32,12.44,10.8,19.81,3.77,6.2,7.85,12.48,11.71,18.34Z"/><path class="cls-1" d="M144.46,172.59h-10.22c-.34,3.49-.9,6.75-1.7,9.89h14.12c3.13,0,6.24,0,9.33,0,3.05,0,6.08,0,9.07,0,1.64,0,3.27,0,4.88,0,.01-3.23.03-6.55.04-9.93-3.35.01-6.76.02-10.2.02-5.04.01-10.17.02-15.32.02Z"/><path class="cls-1" d="M184.97,59.43c.02,5.8.03,12.52.04,19.89,4.01-1.01,8.55-1.65,13.82-1.96,2.75-.16,5.75-.24,9.45-.24h.58c3.33.05,8.32.16,13.42.63,20.35,1.89,32.72,8.82,37.81,21.16v.02s.02.02.02.02c1.76,4.69,1.68,11.31-.22,19.66,3.8,6.29,6.92,11.92,9.47,17.13,4.12-9.3,6.69-17.97,7.84-26.44.57-4.88.43-9.13-.43-12.98-2.13-9.06-7.34-17.58-14.67-23.97-10-8.71-23.81-14.18-39.94-15.81-2.6-.26-5.23-.43-7.83-.49-1.18-.03-2.35-.05-3.49-.05-4.25,0-8.34.22-12.17.66-4.82.56-9.42,1.49-13.69,2.78Z"/><path class="cls-1" d="M107.13,86.1c1.44,1.11,2.76,2.34,3.94,3.65.72.8,1.43,1.72,2.11,2.75,5.25,0,10.6,0,15.98,0-.67-2.15-1.46-4.27-2.41-6.43-3.32-7.62-10.93-15.26-20.87-20.94-3.16-1.8-6.32-3.27-9.39-4.37-.94-.35-1.93-.69-3.03-1.03-4.13-1.31-8.59-2.28-13.28-2.89-.29,3.54-.45,7.36-.51,11.89-.01,3.3.04,6.11.17,8.73,5.49.38,10.18,1.15,14.3,2.32,5.11,1.46,9.35,3.53,12.97,6.34Z"/><path class="cls-1" d="M185.03,172.5c0,3.39,0,6.71-.01,9.97l11.52-.02c8.9,0,16.69-.03,22.49-.04,10.32-.03,16.95-.06,19.71-.1l2.8-.05c.68-1.05,1.51-2.2,2.33-3.31.68-.93,1.33-1.82,1.84-2.58,3.76-5.72,7.74-11.83,11.43-17.89-1.17-4.88-2.97-10.37-5.35-16.37-6.03,13.94-12.82,25.6-14.86,29-.43.74-.45.78-7.2.95-3.75.09-9.2.18-16.2.25-6.84.07-14.83.12-23.11.17-1.77.01-3.57.02-5.4.03Z"/><path class="cls-1" d="M105.49,229.74c-.09-3.75-.18-9.2-.25-16.19-.07-6.49-.13-14.27-.17-23.11-.01-1.77-.02-3.57-.03-5.4-1.73,0-3.44,0-5.14,0-1.62,0-3.23,0-4.83,0l.02,11.52c.01,8.43.03,16.06.04,22.49.03,10.33.06,16.96.1,19.71l.05,2.81c1.05.67,2.19,1.51,3.29,2.32.94.69,1.83,1.34,2.6,1.85,5.7,3.75,11.81,7.73,17.89,11.44,4.87-1.18,10.37-2.97,16.37-5.35-13.95-6.04-25.59-12.83-28.99-14.86-.72-.44-.78-.47-.95-7.2Z"/><path class="cls-1" d="M159.52,145.34c-1.24-.01-2.5-.03-3.77-.05.44,3.31.95,6.58,1.52,9.75,5.37,1.02,10.21,2.2,14.4,3.49,5.29,1.64,9.59,3.47,12.77,5.45,1.29.8,2.42,1.64,3.35,2.49,1.16,1.05,2.26,2.21,3.25,3.44,7.18-.04,14.12-.09,20.25-.14-5.54-9.01-12.68-15.87-19.82-18.98-2.7-1.18-5.34-2.13-8.05-2.89-3.88-1.09-7.76-1.78-12.21-2.15-3.91-.32-7.69-.36-11.69-.4Z"/><path class="cls-1" d="M197.78,94.15c-1.46,5.12-3.54,9.36-6.35,12.97-1.11,1.43-2.33,2.76-3.65,3.94-.8.72-1.72,1.43-2.75,2.1,0,5.25,0,10.6,0,15.99,2.17-.68,4.28-1.47,6.43-2.4,7.63-3.33,15.27-10.94,20.94-20.88,1.79-3.12,3.26-6.28,4.38-9.39.35-.97.69-1.96,1.03-3.02,1.31-4.13,2.28-8.59,2.89-13.28-4.54-.37-8.9-.47-11.88-.51h-.56c-3.14,0-5.77.06-8.17.17-.38,5.49-1.15,10.18-2.32,14.3Z"/><path class="cls-1" d="M95.05,165.06c0,1.04,0,2.08,0,3.11,0,.6,0,1.19,0,1.78,3.23.01,6.55.02,9.92.04-.01-3.36-.02-6.78-.02-10.23-.01-5.04-.02-10.15-.02-15.29v-10.23c-3.52-.34-6.72-.89-9.89-1.7v14.12c0,3.13,0,6.24,0,9.33,0,3.05,0,6.07,0,9.07Z"/><path class="cls-1" d="M95.07,93.79c0,2.01,0,4.04,0,6.1,0,2.11,0,4.25,0,6.41,0,1.01,0,2.04,0,3.06,0,.79,0,1.59,0,2.38,2.58,1.53,5.91,2.97,9.91,4.31,0-3.31.01-6.58.02-9.8.01-4.27.03-8.44.04-12.49,0-2.04.02-4.06.03-6.03-2.85-2.12-6.13-3.78-9.98-5.03l-.02,11.08Z"/><path class="cls-1" d="M218.1,184.96c-5.31.02-12.15.03-19.89.04,1.01,4.02,1.65,8.56,1.96,13.82.17,2.91.25,6,.24,10.02-.05,3.33-.16,8.32-.63,13.42-1.89,20.35-8.82,32.72-21.16,37.82h-.02s-.02.02-.02.02c-2.25.84-4.97,1.27-8.07,1.27-3.35,0-7.25-.5-11.59-1.48-6.37,3.85-11.89,6.91-17.12,9.47,9.3,4.13,17.98,6.7,26.45,7.84,1.92.22,3.8.34,5.55.34,2.65,0,5.15-.26,7.43-.78,9.06-2.13,17.57-7.34,23.97-14.67,8.71-9.99,14.18-23.8,15.81-39.94.26-2.6.43-5.24.49-7.83.15-5.5-.05-10.77-.61-15.66-.56-4.82-1.49-9.42-2.78-13.69Z"/><path class="cls-1" d="M95.28,35.98l-.05,2.81c-.04,2.66-.07,8.97-.09,18.76.79.26,1.53.52,2.24.78,2.59.93,5.23,2.11,7.89,3.51.07-5.98.14-10.7.23-14.06.17-6.73.23-6.76.94-7.2,3.64-2.18,16.7-9.79,31.85-16.07,7.46-3.1,14.24-5.37,20.13-6.75,4.55-1.07,8.63-1.61,12.11-1.61,3.1,0,5.81.43,8.06,1.27h.02s.02.02.02.02c12.09,4.99,18.97,16.94,21.04,36.52,3.55-.36,7.3-.54,11.17-.54,1.16,0,2.36.02,3.56.05,2.14.05,4.3.17,6.45.36-1.82-15.47-7.21-28.72-15.64-38.39-6.39-7.33-14.91-12.54-23.97-14.67-2.28-.52-4.78-.78-7.43-.78-1.75,0-3.63.12-5.56.34-9.21,1.24-18.67,4.18-28.91,8.96-5.95,2.79-12.43,6.32-19.81,10.8-6.3,3.83-12.81,8.07-18.33,11.71-.77.51-1.66,1.16-2.6,1.85-1.11.81-2.24,1.64-3.29,2.32Z"/><path class="cls-1" d="M134.79,124.85c-.05,1.91-.15,4.23-.31,6.93,1.27-.05,2.73-.07,4.23-.07,2.15,0,4.2.05,5.79.15,2.75.17,6.67.37,9.72.39.32,0,.63,0,.91,0h.02c1.45-.03,2.91-.04,4.36-.06,3.6-.04,7.02-.07,10.52-.31l-.02-12.34c-4.08,1.2-8.69,2.28-13.72,3.23-4.89.92-9.29,1.55-12.13,1.92-1.66.21-3.54.33-5.45.33-1.35,0-2.69-.06-3.93-.17Z"/><path class="cls-1" d="M182.47,107.58c-1.47,0-2.95-.01-4.44-.02-1.81,0-3.63-.01-5.48-.02,0,3.37.02,6.8.02,10.27l.02,15.25v10.23c3.53.34,6.73.89,9.89,1.69v-14.12c0-6.2,0-12.36,0-18.4,0-1.63,0-3.27,0-4.89Z"/><path class="cls-1" d="M89.75,166.46c.79-.72,1.69-1.41,2.75-2.11,0-2.76,0-5.56,0-8.37,0-2.53,0-5.07,0-7.62-2.15.67-4.27,1.47-6.43,2.41-7.63,3.32-15.27,10.93-20.95,20.88-1.8,3.15-3.27,6.31-4.37,9.39-.39,1.06-.74,2.12-1.03,3.02-1.31,4.13-2.28,8.59-2.89,13.27,3.54.29,7.36.45,11.88.51.3,0,.61,0,.92,0,2.87,0,5.44-.06,7.81-.17.38-5.46,1.14-10.15,2.32-14.31,1.46-5.13,3.54-9.37,6.35-12.97,1.1-1.41,2.32-2.74,3.64-3.94Z"/><path class="cls-1" d="M59.43,92.56c5.8-.02,12.52-.03,19.89-.04-1.01-4.04-1.66-8.58-1.96-13.82-.18-2.99-.25-6.18-.24-10.02.06-5.18.26-9.44.63-13.42,1.89-20.35,8.82-32.72,21.16-37.82h.02s.02-.02.02-.02c2.25-.84,4.96-1.27,8.06-1.27,3.36,0,7.26.5,11.6,1.49,6.27-3.8,11.9-6.91,17.13-9.47-9.29-4.12-17.97-6.69-26.45-7.84C107.38.12,105.51,0,103.75,0c-2.65,0-5.15.26-7.44.78-9.06,2.12-17.57,7.33-23.97,14.67-8.72,10-14.19,23.82-15.82,39.94-.26,2.62-.42,5.26-.49,7.83-.15,5.54.05,10.81.61,15.66.55,4.82,1.49,9.42,2.78,13.69Z"/><path class="cls-1" d="M182.26,241.55l.05-2.81c.04-2.6.07-8.57.1-18.77-.84-.27-1.55-.52-2.23-.78-2.59-.93-5.23-2.11-7.89-3.51-.07,5.98-.14,10.7-.23,14.06-.17,6.73-.23,6.76-.94,7.2-3.63,2.18-16.65,9.76-31.85,16.07-7.47,3.1-14.24,5.37-20.13,6.75-4.55,1.06-8.62,1.6-12.11,1.6-3.1,0-5.81-.43-8.07-1.27h-.02s-.02-.02-.02-.02c-12.08-4.98-18.97-16.94-21.04-36.52-3.54.36-7.3.54-11.18.54-1.16,0-2.35-.02-3.55-.05-2.19-.06-4.36-.18-6.45-.36,1.82,15.46,7.21,28.71,15.65,38.39,6.39,7.33,14.91,12.54,23.98,14.67,2.27.51,4.77.78,7.42.78,1.75,0,3.63-.11,5.58-.34,9.19-1.24,18.65-4.18,28.91-8.97,6.02-2.81,12.31-6.24,19.81-10.8,6.32-3.85,12.82-8.08,18.34-11.71.76-.5,1.63-1.14,2.56-1.82,1.12-.82,2.26-1.66,3.32-2.34Z"/><path class="cls-1" d="M118.02,132.2c1.27.01,2.56.03,3.86.05-.33-2.52-.82-5.89-1.5-9.64-5.45-1.06-10.33-2.26-14.51-3.57-5.29-1.65-9.58-3.49-12.76-5.48-1.27-.79-2.39-1.62-3.35-2.48-1.16-1.05-2.25-2.21-3.25-3.45-7.61.04-14.41.09-20.26.15,5.55,9.01,12.69,15.87,19.83,18.98,2.68,1.17,5.31,2.11,8.05,2.89,3.9,1.1,7.78,1.78,12.21,2.15,3.91.32,7.69.36,11.69.4Z"/><path class="cls-1" d="M182.46,183.74c0-4.07.01-8.25.01-12.53,0-1.8,0-3.61,0-5.44-2.58-1.52-5.91-2.96-9.91-4.28,0,3.3-.01,6.56-.02,9.77-.01,4.27-.03,8.45-.04,12.49,0,1.1-.01,2.19-.02,3.27,0,.93,0,1.85-.01,2.76,2.86,2.13,6.14,3.78,9.98,5.02,0-3.56,0-7.27,0-11.07Z"/><path class="cls-1" d="M143.03,145.75c-1.29.05-2.76.08-4.28.08-2.11,0-4.14-.05-5.69-.15-4.12-.25-7.43-.38-9.83-.4h-.29s-.27,0-.27,0c-.08,0-.17,0-.25,0-1.49.03-2.95.04-4.39.06-3.6.04-7.02.07-10.52.31,0,4.15,0,8.29.02,12.38,4.05-1.17,8.62-2.24,13.61-3.16,3.94-.74,8.06-1.37,12.24-1.89,1.62-.2,3.48-.31,5.36-.31,1.38,0,2.74.06,4.01.17.05-2.4.18-5.09.29-7.08Z"/><path class="cls-1" d="M172.05,47.79c.09,3.75.18,9.2.25,16.2.07,6.5.13,14.27.17,23.11,0,1.12.01,2.25.02,3.39,0,.66,0,1.33,0,2,1.68,0,3.34,0,4.99,0,1.67,0,3.33,0,4.97,0,0-3.97,0-7.82-.01-11.52-.01-8.43-.03-16.06-.04-22.49-.03-10.61-.06-17.06-.1-19.7l-.05-2.81c-1.06-.68-2.21-1.52-3.32-2.34-.93-.68-1.81-1.32-2.57-1.82-5.35-3.53-11.65-7.64-17.89-11.44-4.88,1.17-10.37,2.97-16.37,5.35,13.92,6.02,25.58,12.82,28.99,14.86.72.44.78.47.95,7.2Z"/></svg>